<svg width="174" height="95" viewBox="0 0 174 95" fill="none" xmlns="http://www.w3.org/2000/svg">
<path d="M29.2594 35.8019C26.7554 25.1121 33.6164 14.4285 44.5762 11.9347C49.6661 10.7766 54.8975 11.5629 59.3235 14.0484C61.8519 15.4683 64.0411 17.4034 65.7316 19.7243L65.9108 19.9745L66.5493 20.8807L64.7104 22.1394L64.0719 21.2331C62.5497 19.0729 60.545 17.274 58.2151 15.9656C54.2738 13.7523 49.6172 13.0524 45.0799 14.0848C35.3193 16.3057 29.2163 25.8087 31.4409 35.3055C33.6655 44.8023 43.3775 50.7067 53.1381 48.4858C57.6087 47.4686 61.4351 44.8897 63.9931 41.2832L64.1339 41.0818L64.7628 40.1691L66.615 41.4087L65.9862 42.3214C63.1144 46.4896 58.7497 49.4736 53.6417 50.6359C42.6819 53.1297 31.7634 46.4917 29.2594 35.8019Z" fill="black"/>
<path d="M60.9155 75.9448L59.7482 70.9557L57.4967 71.5143L58.664 76.5035L60.9155 75.9448ZM58.8993 67.3273L57.7321 62.3382L55.4805 62.8968L56.6478 67.8859L58.8993 67.3273ZM56.8831 58.7097L55.7159 53.7206L53.4643 54.2792L54.6316 59.2683L56.8831 58.7097Z" fill="black"/>
<path d="M63.483 81.7689C65.782 82.3129 67.2013 84.6324 66.6531 86.9497C66.1048 89.267 63.7966 90.7046 61.4975 90.1606C59.1984 89.6167 57.7791 87.2971 58.3274 84.9798C58.8756 82.6625 61.1839 81.225 63.483 81.7689Z" fill="#A9EAF3"/>
<path d="M59.6851 91.2886C62.5574 92.9437 66.2383 91.9208 67.9066 89.0039C69.5749 86.087 68.5988 82.3807 65.7265 80.7256C62.8542 79.0705 59.1733 80.0934 57.505 83.0103C55.8367 85.9272 56.8128 89.6335 59.6851 91.2886ZM60.8469 89.2572C59.0793 88.2387 58.4787 85.9579 59.5053 84.1629C60.532 82.3679 62.7971 81.7384 64.5647 82.7569C66.3323 83.7754 66.9329 86.0562 65.9063 87.8513C64.8796 89.6463 62.6145 90.2758 60.8469 89.2572Z" fill="black"/>
<path d="M28.3516 12.4409L31.9019 16.0772L33.5875 14.4558L30.0372 10.8196L28.3516 12.4409Z" fill="black"/>
<path d="M27.2618 3.94223C26.2019 1.765 23.5532 0.873972 21.3458 1.95207C19.1384 3.03017 18.2083 5.66914 19.2682 7.84637C20.3281 10.0236 22.9768 10.9146 25.1842 9.83653C27.3915 8.75843 28.3217 6.11946 27.2618 3.94223ZM25.1582 4.96963C25.6603 6.00096 25.2197 7.25099 24.1741 7.76167C23.1285 8.27235 21.8738 7.85029 21.3718 6.81897C20.8697 5.78764 21.3103 4.53761 22.3559 4.02693C23.4015 3.51625 24.6561 3.93831 25.1582 4.96963Z" fill="black"/>
<path d="M14.4558 48.1492L19.0586 45.9009L18.0694 43.8019L13.4665 46.0503L14.4558 48.1492ZM22.4062 44.2658L27.009 42.0174L26.0198 39.9185L21.4169 42.1668L22.4062 44.2658Z" fill="black"/>
<path d="M4.00759 54.8224C6.22092 56.087 9.052 55.2903 10.331 53.043C11.61 50.7957 10.8525 47.9488 8.6392 46.6843C6.42587 45.4197 3.59479 46.2164 2.3158 48.4637C1.03682 50.7109 1.79426 53.5579 4.00759 54.8224ZM5.16549 52.7879C4.05882 52.1556 3.68011 50.7321 4.3196 49.6085C4.95909 48.4849 6.37463 48.0865 7.4813 48.7188C8.58796 49.3511 8.96668 50.7745 8.32719 51.8982C7.68769 53.0218 6.27215 53.4202 5.16549 52.7879Z" fill="black"/>
<path d="M94.1712 29.279V31.3342H90.6149V29.279H94.1712Z" fill="black"/>
<path d="M72.4267 53.0865C72.1422 53.3324 72 53.6545 72 54.0526C72 54.4391 72.1422 54.7611 72.4267 55.0187C72.7112 55.2647 73.0846 55.3876 73.5468 55.3876C74.0091 55.3876 74.3825 55.2647 74.6669 55.0187C74.9514 54.7611 75.0937 54.4391 75.0937 54.0526C75.0937 53.6545 74.9514 53.3324 74.6669 53.0865C74.3825 52.8289 74.0091 52.7001 73.5468 52.7001C73.0846 52.7001 72.7112 52.8289 72.4267 53.0865Z" fill="#0F498C"/>
<path d="M83.958 45.222C84.798 45.222 85.554 45.426 86.226 45.834C86.898 46.242 87.42 46.836 87.792 47.616C88.176 48.384 88.368 49.29 88.368 50.334C88.368 51.378 88.176 52.29 87.792 53.07C87.42 53.838 86.898 54.426 86.226 54.834C85.554 55.242 84.798 55.446 83.958 55.446C83.118 55.446 82.398 55.248 81.798 54.852C81.21 54.444 80.79 53.904 80.538 53.232V55.32H78V42H80.538V47.418C80.79 46.746 81.21 46.212 81.798 45.816C82.398 45.42 83.118 45.222 83.958 45.222ZM83.166 47.436C82.398 47.436 81.762 47.7 81.258 48.228C80.766 48.744 80.52 49.446 80.52 50.334C80.52 51.21 80.766 51.912 81.258 52.44C81.762 52.956 82.398 53.214 83.166 53.214C83.958 53.214 84.594 52.962 85.074 52.458C85.554 51.942 85.794 51.234 85.794 50.334C85.794 49.434 85.554 48.726 85.074 48.21C84.594 47.694 83.958 47.436 83.166 47.436Z" fill="#0F498C"/>
<path d="M92.2161 53.196H97.1121V55.32H89.4441V53.304L94.0341 47.454H89.5521V45.348H96.9321V47.346L92.2161 53.196Z" fill="#0F498C"/>
<path d="M104.629 45.204C105.781 45.204 106.699 45.582 107.383 46.338C108.067 47.094 108.409 48.156 108.409 49.524V55.32H105.889V49.812C105.889 49.02 105.685 48.408 105.277 47.976C104.869 47.532 104.311 47.31 103.603 47.31C102.883 47.31 102.307 47.544 101.875 48.012C101.443 48.48 101.227 49.152 101.227 50.028V55.32H98.6895V42H101.227V47.346C101.491 46.674 101.923 46.152 102.523 45.78C103.135 45.396 103.837 45.204 104.629 45.204Z" fill="#0F498C"/>
<path d="M63.4535 26.6918C64.6055 26.6918 65.5235 27.0698 66.2075 27.8258C66.8915 28.5818 67.2335 29.6438 67.2335 31.0118V36.8078H64.7135V31.2998C64.7135 30.5078 64.5095 29.8958 64.1015 29.4638C63.6935 29.0198 63.1355 28.7978 62.4275 28.7978C61.7075 28.7978 61.1315 29.0318 60.6995 29.4998C60.2675 29.9678 60.0515 30.6398 60.0515 31.5158V36.8078H57.5135V26.8358H60.0515V28.8338C60.3155 28.1618 60.7475 27.6398 61.3475 27.2678C61.9595 26.8838 62.6615 26.6918 63.4535 26.6918Z" fill="black"/>
<path d="M74.0746 26.7098C75.0466 26.7098 75.9166 26.9138 76.6846 27.3218C77.4646 27.7298 78.0766 28.3238 78.5206 29.1038C78.9646 29.8718 79.1866 30.7778 79.1866 31.8218C79.1866 32.8658 78.9646 33.7718 78.5206 34.5398C78.0766 35.3078 77.4646 35.9018 76.6846 36.3218C75.9166 36.7298 75.0466 36.9338 74.0746 36.9338C73.1026 36.9338 72.2266 36.7298 71.4466 36.3218C70.6786 35.9018 70.0726 35.3078 69.6286 34.5398C69.1846 33.7718 68.9626 32.8658 68.9626 31.8218C68.9626 30.7778 69.1846 29.8718 69.6286 29.1038C70.0726 28.3238 70.6786 27.7298 71.4466 27.3218C72.2266 26.9138 73.1026 26.7098 74.0746 26.7098ZM74.0746 28.9058C73.3666 28.9058 72.7666 29.1578 72.2746 29.6618C71.7826 30.1538 71.5366 30.8738 71.5366 31.8218C71.5366 32.7698 71.7826 33.4958 72.2746 33.9998C72.7666 34.4918 73.3666 34.7378 74.0746 34.7378C74.7826 34.7378 75.3826 34.4918 75.8746 33.9998C76.3666 33.4958 76.6126 32.7698 76.6126 31.8218C76.6126 30.8738 76.3666 30.1538 75.8746 29.6618C75.3826 29.1578 74.7826 28.9058 74.0746 28.9058Z" fill="black"/>
<path d="M84.4183 26.7098C85.6303 26.7098 86.6023 27.0158 87.3343 27.6278C88.0663 28.2398 88.5223 29.0558 88.7023 30.0758H86.3263C86.2303 29.5958 86.0143 29.2118 85.6783 28.9238C85.3423 28.6358 84.9043 28.4918 84.3643 28.4918C83.9323 28.4918 83.5963 28.5938 83.3563 28.7978C83.1163 29.0018 82.9963 29.2778 82.9963 29.6258C82.9963 29.9018 83.0923 30.1238 83.2843 30.2918C83.4763 30.4598 83.7163 30.5918 84.0043 30.6878C84.2923 30.7838 84.7063 30.8978 85.2463 31.0298C86.0023 31.1978 86.6143 31.3778 87.0823 31.5698C87.5623 31.7498 87.9703 32.0438 88.3063 32.4518C88.6543 32.8478 88.8283 33.3878 88.8283 34.0718C88.8283 34.9238 88.4923 35.6138 87.8203 36.1418C87.1603 36.6698 86.2663 36.9338 85.1383 36.9338C83.8423 36.9338 82.8043 36.6458 82.0243 36.0698C81.2443 35.4818 80.7703 34.6478 80.6023 33.5678H83.0323C83.0923 34.0598 83.3083 34.4498 83.6803 34.7378C84.0523 35.0138 84.5383 35.1518 85.1383 35.1518C85.5703 35.1518 85.9003 35.0498 86.1283 34.8458C86.3563 34.6298 86.4703 34.3538 86.4703 34.0178C86.4703 33.7298 86.3683 33.4958 86.1643 33.3158C85.9723 33.1358 85.7263 32.9978 85.4263 32.9018C85.1383 32.8058 84.7243 32.6918 84.1843 32.5598C83.4403 32.3918 82.8343 32.2238 82.3663 32.0558C81.9103 31.8758 81.5143 31.5938 81.1783 31.2098C80.8543 30.8258 80.6923 30.2978 80.6923 29.6258C80.6923 28.7618 81.0223 28.0598 81.6823 27.5198C82.3423 26.9798 83.2543 26.7098 84.4183 26.7098Z" fill="black"/>
<path d="M99.9235 26.5098C100.763 26.5098 101.477 26.7078 102.065 27.1038C102.665 27.4998 103.097 28.0338 103.361 28.7058V23.2878H105.881V36.6078H103.361V34.5198C103.097 35.1918 102.665 35.7318 102.065 36.1398C101.477 36.5358 100.763 36.7338 99.9235 36.7338C99.0835 36.7338 98.3275 36.5298 97.6555 36.1218C96.9835 35.7138 96.4555 35.1258 96.0715 34.3578C95.6995 33.5778 95.5135 32.6658 95.5135 31.6218C95.5135 30.5778 95.6995 29.6718 96.0715 28.9038C96.4555 28.1238 96.9835 27.5298 97.6555 27.1218C98.3275 26.7138 99.0835 26.5098 99.9235 26.5098ZM100.715 28.7238C99.9235 28.7238 99.2875 28.9818 98.8075 29.4978C98.3275 30.0138 98.0875 30.7218 98.0875 31.6218C98.0875 32.5218 98.3275 33.2298 98.8075 33.7458C99.2875 34.2498 99.9235 34.5018 100.715 34.5018C101.483 34.5018 102.113 34.2438 102.605 33.7278C103.109 33.1998 103.361 32.4978 103.361 31.6218C103.361 30.7338 103.109 30.0318 102.605 29.5158C102.113 28.9878 101.483 28.7238 100.715 28.7238Z" fill="black"/>
<path d="M112.79 26.5098C113.762 26.5098 114.632 26.7138 115.4 27.1218C116.18 27.5298 116.792 28.1238 117.236 28.9038C117.68 29.6718 117.902 30.5778 117.902 31.6218C117.902 32.6658 117.68 33.5718 117.236 34.3398C116.792 35.1078 116.18 35.7018 115.4 36.1218C114.632 36.5298 113.762 36.7338 112.79 36.7338C111.818 36.7338 110.942 36.5298 110.162 36.1218C109.394 35.7018 108.788 35.1078 108.344 34.3398C107.9 33.5718 107.678 32.6658 107.678 31.6218C107.678 30.5778 107.9 29.6718 108.344 28.9038C108.788 28.1238 109.394 27.5298 110.162 27.1218C110.942 26.7138 111.818 26.5098 112.79 26.5098ZM112.79 28.7058C112.082 28.7058 111.482 28.9578 110.99 29.4618C110.498 29.9538 110.252 30.6738 110.252 31.6218C110.252 32.5698 110.498 33.2958 110.99 33.7998C111.482 34.2918 112.082 34.5378 112.79 34.5378C113.498 34.5378 114.098 34.2918 114.59 33.7998C115.082 33.2958 115.328 32.5698 115.328 31.6218C115.328 30.6738 115.082 29.9538 114.59 29.4618C114.098 28.9578 113.498 28.7058 112.79 28.7058Z" fill="black"/>
<path d="M125.635 26.4918C126.787 26.4918 127.705 26.8698 128.389 27.6258C129.073 28.3818 129.415 29.4438 129.415 30.8118V36.6078H126.895V31.0998C126.895 30.3078 126.691 29.6958 126.283 29.2638C125.875 28.8198 125.317 28.5978 124.609 28.5978C123.889 28.5978 123.313 28.8318 122.881 29.2998C122.449 29.7678 122.233 30.4398 122.233 31.3158V36.6078H119.695V26.6358H122.233V28.6338C122.497 27.9618 122.929 27.4398 123.529 27.0678C124.141 26.6838 124.843 26.4918 125.635 26.4918Z" fill="black"/>
<path d="M137.588 26.4918C138.74 26.4918 139.658 26.8698 140.342 27.6258C141.026 28.3818 141.368 29.4438 141.368 30.8118V36.6078H138.848V31.0998C138.848 30.3078 138.644 29.6958 138.236 29.2638C137.828 28.8198 137.27 28.5978 136.562 28.5978C135.842 28.5978 135.266 28.8318 134.834 29.2998C134.402 29.7678 134.186 30.4398 134.186 31.3158V36.6078H131.648V26.6358H134.186V28.6338C134.45 27.9618 134.882 27.4398 135.482 27.0678C136.094 26.6838 136.796 26.4918 137.588 26.4918Z" fill="black"/>
<path d="M152.979 31.2438C152.979 31.4958 152.949 31.7838 152.889 32.1078H145.581C145.617 32.9958 145.857 33.6498 146.301 34.0698C146.745 34.4898 147.297 34.6998 147.957 34.6998C148.545 34.6998 149.031 34.5558 149.415 34.2678C149.811 33.9798 150.063 33.5898 150.171 33.0978H152.853C152.721 33.7938 152.439 34.4178 152.007 34.9698C151.575 35.5218 151.017 35.9538 150.333 36.2658C149.661 36.5778 148.911 36.7338 148.083 36.7338C147.111 36.7338 146.247 36.5298 145.491 36.1218C144.735 35.7018 144.147 35.1078 143.727 34.3398C143.307 33.5718 143.097 32.6658 143.097 31.6218C143.097 30.5778 143.307 29.6718 143.727 28.9038C144.147 28.1238 144.735 27.5298 145.491 27.1218C146.247 26.7138 147.111 26.5098 148.083 26.5098C149.067 26.5098 149.925 26.7138 150.657 27.1218C151.401 27.5298 151.971 28.0938 152.367 28.8138C152.775 29.5218 152.979 30.3318 152.979 31.2438ZM150.423 30.9918C150.459 30.1758 150.243 29.5578 149.775 29.1378C149.319 28.7178 148.755 28.5078 148.083 28.5078C147.399 28.5078 146.823 28.7178 146.355 29.1378C145.887 29.5578 145.629 30.1758 145.581 30.9918H150.423ZM150.765 23.9358L146.625 25.8798V24.1518L150.765 21.9918V23.9358Z" fill="black"/>
<path d="M164.159 31.2438C164.159 31.4958 164.129 31.7838 164.069 32.1078H156.761C156.797 32.9958 157.037 33.6498 157.481 34.0698C157.925 34.4898 158.477 34.6998 159.137 34.6998C159.725 34.6998 160.211 34.5558 160.595 34.2678C160.991 33.9798 161.243 33.5898 161.351 33.0978H164.033C163.901 33.7938 163.619 34.4178 163.187 34.9698C162.755 35.5218 162.197 35.9538 161.513 36.2658C160.841 36.5778 160.091 36.7338 159.263 36.7338C158.291 36.7338 157.427 36.5298 156.671 36.1218C155.915 35.7018 155.327 35.1078 154.907 34.3398C154.487 33.5718 154.277 32.6658 154.277 31.6218C154.277 30.5778 154.487 29.6718 154.907 28.9038C155.327 28.1238 155.915 27.5298 156.671 27.1218C157.427 26.7138 158.291 26.5098 159.263 26.5098C160.247 26.5098 161.105 26.7138 161.837 27.1218C162.581 27.5298 163.151 28.0938 163.547 28.8138C163.955 29.5218 164.159 30.3318 164.159 31.2438ZM161.603 30.9918C161.639 30.1758 161.423 29.5578 160.955 29.1378C160.499 28.7178 159.935 28.5078 159.263 28.5078C158.579 28.5078 158.003 28.7178 157.535 29.1378C157.067 29.5578 156.809 30.1758 156.761 30.9918H161.603Z" fill="black"/>
<path d="M169.399 26.5098C170.611 26.5098 171.583 26.8158 172.315 27.4278C173.047 28.0398 173.503 28.8558 173.683 29.8758H171.307C171.211 29.3958 170.995 29.0118 170.659 28.7238C170.323 28.4358 169.885 28.2918 169.345 28.2918C168.913 28.2918 168.577 28.3938 168.337 28.5978C168.097 28.8018 167.977 29.0778 167.977 29.4258C167.977 29.7018 168.073 29.9238 168.265 30.0918C168.457 30.2598 168.697 30.3918 168.985 30.4878C169.273 30.5838 169.687 30.6978 170.227 30.8298C170.983 30.9978 171.595 31.1778 172.063 31.3698C172.543 31.5498 172.951 31.8438 173.287 32.2518C173.635 32.6478 173.809 33.1878 173.809 33.8718C173.809 34.7238 173.473 35.4138 172.801 35.9418C172.141 36.4698 171.247 36.7338 170.119 36.7338C168.823 36.7338 167.785 36.4458 167.005 35.8698C166.225 35.2818 165.751 34.4478 165.583 33.3678H168.013C168.073 33.8598 168.289 34.2498 168.661 34.5378C169.033 34.8138 169.519 34.9518 170.119 34.9518C170.551 34.9518 170.881 34.8498 171.109 34.6458C171.337 34.4298 171.451 34.1538 171.451 33.8178C171.451 33.5298 171.349 33.2958 171.145 33.1158C170.953 32.9358 170.707 32.7978 170.407 32.7018C170.119 32.6058 169.705 32.4918 169.165 32.3598C168.421 32.1918 167.815 32.0238 167.347 31.8558C166.891 31.6758 166.495 31.3938 166.159 31.0098C165.835 30.6258 165.673 30.0978 165.673 29.4258C165.673 28.5618 166.003 27.8598 166.663 27.3198C167.323 26.7798 168.235 26.5098 169.399 26.5098Z" fill="black"/>
</svg>
