<svg width="175" height="95" viewBox="0 0 175 95" fill="none" xmlns="http://www.w3.org/2000/svg">
<path d="M29.746 36.1101C27.2419 25.4203 34.103 14.7368 45.0628 12.243C50.1527 11.0848 55.3841 11.8711 59.8101 14.3566C62.3385 15.7765 64.5277 17.7116 66.2181 20.0326L66.3974 20.2827L67.0359 21.1889L65.1969 22.4476L64.5584 21.5414C63.0363 19.3811 61.0316 17.5822 58.7017 16.2739C54.7603 14.0605 50.1038 13.3606 45.5664 14.393C35.8058 16.614 29.7029 26.117 31.9275 35.6137C34.152 45.1105 43.864 51.015 53.6247 48.794C58.0953 47.7768 61.9217 45.1979 64.4797 41.5915L64.6205 41.39L65.2494 40.4773L67.1016 41.7169L66.4727 42.6296C63.601 46.7979 59.2362 49.7818 54.1283 50.9441C43.1685 53.4379 32.25 46.8 29.746 36.1101Z" fill="black"/>
<path d="M61.4021 76.2531L60.2348 71.264L57.9833 71.8226L59.1505 76.8117L61.4021 76.2531ZM59.3859 67.6355L58.2186 62.6464L55.9671 63.205L57.1343 68.1941L59.3859 67.6355ZM57.3697 59.0179L56.2024 54.0288L53.9509 54.5874L55.1181 59.5766L57.3697 59.0179Z" fill="black"/>
<path d="M63.9695 82.0772C66.2686 82.6211 67.6879 84.9406 67.1396 87.2579C66.5914 89.5752 64.2831 91.0128 61.984 90.4688C59.685 89.9249 58.2657 87.6054 58.8139 85.2881C59.3622 82.9708 61.6704 81.5332 63.9695 82.0772Z" fill="#A9EAF3"/>
<path d="M60.1716 91.5968C63.0439 93.2519 66.7248 92.229 68.3931 89.3121C70.0614 86.3952 69.0854 82.6889 66.2131 81.0338C63.3408 79.3787 59.6599 80.4016 57.9916 83.3185C56.3233 86.2354 57.2993 89.9418 60.1716 91.5968ZM61.3335 89.5655C59.5659 88.547 58.9653 86.2662 59.9919 84.4712C61.0185 82.6761 63.2837 82.0467 65.0513 83.0652C66.8189 84.0837 67.4195 86.3645 66.3928 88.1595C65.3662 89.9545 63.101 90.584 61.3335 89.5655Z" fill="black"/>
<path d="M28.8382 12.7491L32.3885 16.3854L34.0741 14.7641L30.5237 11.1278L28.8382 12.7491Z" fill="black"/>
<path d="M27.7484 4.25046C26.6884 2.07322 24.0398 1.1822 21.8324 2.2603C19.625 3.3384 18.6948 5.97737 19.7547 8.1546C20.8147 10.3318 23.4633 11.2229 25.6707 10.1448C27.8781 9.06666 28.8083 6.42769 27.7484 4.25046ZM25.6448 5.27786C26.1468 6.30918 25.7062 7.55922 24.6606 8.0699C23.615 8.58058 22.3604 8.15851 21.8583 7.12719C21.3563 6.09587 21.7969 4.84583 22.8425 4.33516C23.8881 3.82448 25.1427 4.24654 25.6448 5.27786Z" fill="black"/>
<path d="M14.9423 48.4574L19.5452 46.2091L18.5559 44.1102L13.9531 46.3585L14.9423 48.4574ZM22.8927 44.574L27.4956 42.3257L26.5063 40.2267L21.9035 42.475L22.8927 44.574Z" fill="black"/>
<path d="M4.49415 55.1306C6.70748 56.3952 9.53856 55.5985 10.8175 53.3512C12.0965 51.104 11.3391 48.2571 9.12576 46.9925C6.91243 45.7279 4.08135 46.5246 2.80237 48.7719C1.52338 51.0192 2.28082 53.8661 4.49415 55.1306ZM5.65205 53.0961C4.54539 52.4638 4.16667 51.0404 4.80616 49.9167C5.44566 48.7931 6.8612 48.3948 7.96786 49.027C9.07453 49.6593 9.45324 51.0828 8.81375 52.2064C8.17426 53.3301 6.75872 53.7284 5.65205 53.0961Z" fill="black"/>
<path d="M94.6578 29.5872V31.6424H91.1015V29.5872H94.6578Z" fill="black"/>
<path d="M75.8959 54.8835L75.8959 54.8836L75.9019 54.8782C76.2602 54.5537 76.4437 54.1371 76.4437 53.6526C76.4437 53.161 76.2633 52.7408 75.8989 52.4244C75.5379 52.0989 75.0758 51.95 74.5469 51.95C74.0179 51.95 73.5558 52.0989 73.1948 52.4244C72.8305 52.7408 72.65 53.161 72.65 53.6526C72.65 54.1371 72.8335 54.5537 73.1918 54.8782L73.1917 54.8782L73.1978 54.8835C73.5596 55.1962 74.0206 55.3376 74.5469 55.3376C75.0731 55.3376 75.5341 55.1962 75.8959 54.8835Z" stroke="black" stroke-width="0.7"/>
<path d="M82.3924 54.7625L82.3923 54.7626L82.3991 54.7668C83.0306 55.1609 83.777 55.35 84.6229 55.35C85.4715 55.35 86.2459 55.1544 86.9375 54.7573C87.6333 54.3579 88.172 53.7819 88.5522 53.0401C88.9446 52.2858 89.1348 51.4148 89.1348 50.4378C89.1348 49.4617 88.945 48.5958 88.5522 47.8514C88.1725 47.0999 87.6341 46.5181 86.9375 46.1182C86.2459 45.7211 85.4715 45.5255 84.6229 45.5255C83.777 45.5255 83.0306 45.7146 82.3991 46.1087L82.399 46.1087L82.3964 46.1104C82.1523 46.2658 81.9351 46.4435 81.7453 46.6431V43V42.65H81.3953H79H78.65V43V48.9438V54.8876V55.2376H79H81.3953H81.7453V54.8876V54.2222C81.9341 54.4233 82.15 54.6035 82.3924 54.7625ZM81.7283 50.4378C81.7283 49.7175 81.9367 49.1881 82.3211 48.8069C82.7255 48.4063 83.2345 48.2014 83.8754 48.2014C84.545 48.2014 85.0498 48.4046 85.4266 48.7876C85.8003 49.1676 86.0056 49.7028 86.0056 50.4378C86.0056 51.1718 85.8008 51.7066 85.428 52.0864C85.0519 52.4591 84.5466 52.658 83.8754 52.658C83.2336 52.658 82.7246 52.4578 82.3212 52.0687C81.9348 51.675 81.7283 51.1438 81.7283 50.4378Z" stroke="black" stroke-width="0.7"/>
<path d="M99.0867 53.004V52.654H98.7367H94.8744L98.8332 48.0102L98.9168 47.9121V47.7831V46V45.65H98.5668H91.602H91.252V46V47.8795V48.2295H91.602H95.0867L91.2307 52.8769L91.1501 52.9741V53.1004V54.8996V55.2496H91.5001H98.7367H99.0867V54.8996V53.004Z" stroke="black" stroke-width="0.7"/>
<path d="M111.173 55.2376H111.523V54.8876V49.7149C111.523 48.4325 111.183 47.3875 110.458 46.6295C109.735 45.8744 108.772 45.5094 107.606 45.5094C106.803 45.5094 106.078 45.694 105.441 46.072C105.179 46.2254 104.947 46.4053 104.745 46.6111V43V42.65H104.395H102H101.65V43V54.8876V55.2376H102H104.395H104.745V54.8876V50.1647C104.745 49.4424 104.933 48.9425 105.257 48.6099C105.588 48.2709 106.036 48.089 106.638 48.089C107.232 48.089 107.661 48.2627 107.966 48.5772L107.966 48.5773L107.97 48.5807C108.271 48.8827 108.445 49.3291 108.445 49.9719V54.8876V55.2376H108.795H111.173Z" stroke="black" stroke-width="0.7"/>
<path d="M63.94 27C65.092 27 66.01 27.378 66.694 28.134C67.378 28.89 67.72 29.952 67.72 31.32V37.116H65.2V31.608C65.2 30.816 64.996 30.204 64.588 29.772C64.18 29.328 63.622 29.106 62.914 29.106C62.194 29.106 61.618 29.34 61.186 29.808C60.754 30.276 60.538 30.948 60.538 31.824V37.116H58V27.144H60.538V29.142C60.802 28.47 61.234 27.948 61.834 27.576C62.446 27.192 63.148 27 63.94 27Z" fill="black"/>
<path d="M74.5612 27.018C75.5332 27.018 76.4032 27.222 77.1712 27.63C77.9512 28.038 78.5632 28.632 79.0072 29.412C79.4512 30.18 79.6732 31.086 79.6732 32.13C79.6732 33.174 79.4512 34.08 79.0072 34.848C78.5632 35.616 77.9512 36.21 77.1712 36.63C76.4032 37.038 75.5332 37.242 74.5612 37.242C73.5892 37.242 72.7132 37.038 71.9332 36.63C71.1652 36.21 70.5592 35.616 70.1152 34.848C69.6712 34.08 69.4492 33.174 69.4492 32.13C69.4492 31.086 69.6712 30.18 70.1152 29.412C70.5592 28.632 71.1652 28.038 71.9332 27.63C72.7132 27.222 73.5892 27.018 74.5612 27.018ZM74.5612 29.214C73.8532 29.214 73.2532 29.466 72.7612 29.97C72.2692 30.462 72.0232 31.182 72.0232 32.13C72.0232 33.078 72.2692 33.804 72.7612 34.308C73.2532 34.8 73.8532 35.046 74.5612 35.046C75.2692 35.046 75.8692 34.8 76.3612 34.308C76.8532 33.804 77.0992 33.078 77.0992 32.13C77.0992 31.182 76.8532 30.462 76.3612 29.97C75.8692 29.466 75.2692 29.214 74.5612 29.214Z" fill="black"/>
<path d="M84.9048 27.018C86.1168 27.018 87.0888 27.324 87.8208 27.936C88.5528 28.548 89.0088 29.364 89.1888 30.384H86.8128C86.7168 29.904 86.5008 29.52 86.1648 29.232C85.8288 28.944 85.3908 28.8 84.8508 28.8C84.4188 28.8 84.0828 28.902 83.8428 29.106C83.6028 29.31 83.4828 29.586 83.4828 29.934C83.4828 30.21 83.5788 30.432 83.7708 30.6C83.9628 30.768 84.2028 30.9 84.4908 30.996C84.7788 31.092 85.1928 31.206 85.7328 31.338C86.4888 31.506 87.1008 31.686 87.5688 31.878C88.0488 32.058 88.4568 32.352 88.7928 32.76C89.1408 33.156 89.3148 33.696 89.3148 34.38C89.3148 35.232 88.9788 35.922 88.3068 36.45C87.6468 36.978 86.7528 37.242 85.6248 37.242C84.3288 37.242 83.2908 36.954 82.5108 36.378C81.7308 35.79 81.2568 34.956 81.0888 33.876H83.5188C83.5788 34.368 83.7948 34.758 84.1668 35.046C84.5388 35.322 85.0248 35.46 85.6248 35.46C86.0568 35.46 86.3868 35.358 86.6148 35.154C86.8428 34.938 86.9568 34.662 86.9568 34.326C86.9568 34.038 86.8548 33.804 86.6508 33.624C86.4588 33.444 86.2128 33.306 85.9128 33.21C85.6248 33.114 85.2108 33 84.6708 32.868C83.9268 32.7 83.3208 32.532 82.8528 32.364C82.3968 32.184 82.0008 31.902 81.6648 31.518C81.3408 31.134 81.1788 30.606 81.1788 29.934C81.1788 29.07 81.5088 28.368 82.1688 27.828C82.8288 27.288 83.7408 27.018 84.9048 27.018Z" fill="black"/>
<path d="M100.41 26.818C101.25 26.818 101.964 27.016 102.552 27.412C103.152 27.808 103.584 28.342 103.848 29.014V23.596H106.368V36.916H103.848V34.828C103.584 35.5 103.152 36.04 102.552 36.448C101.964 36.844 101.25 37.042 100.41 37.042C99.5701 37.042 98.8141 36.838 98.1421 36.43C97.4701 36.022 96.9421 35.434 96.5581 34.666C96.1861 33.886 96.0001 32.974 96.0001 31.93C96.0001 30.886 96.1861 29.98 96.5581 29.212C96.9421 28.432 97.4701 27.838 98.1421 27.43C98.8141 27.022 99.5701 26.818 100.41 26.818ZM101.202 29.032C100.41 29.032 99.7741 29.29 99.2941 29.806C98.8141 30.322 98.5741 31.03 98.5741 31.93C98.5741 32.83 98.8141 33.538 99.2941 34.054C99.7741 34.558 100.41 34.81 101.202 34.81C101.97 34.81 102.6 34.552 103.092 34.036C103.596 33.508 103.848 32.806 103.848 31.93C103.848 31.042 103.596 30.34 103.092 29.824C102.6 29.296 101.97 29.032 101.202 29.032Z" fill="black"/>
<path d="M113.276 26.818C114.248 26.818 115.118 27.022 115.886 27.43C116.666 27.838 117.278 28.432 117.722 29.212C118.166 29.98 118.388 30.886 118.388 31.93C118.388 32.974 118.166 33.88 117.722 34.648C117.278 35.416 116.666 36.01 115.886 36.43C115.118 36.838 114.248 37.042 113.276 37.042C112.304 37.042 111.428 36.838 110.648 36.43C109.88 36.01 109.274 35.416 108.83 34.648C108.386 33.88 108.164 32.974 108.164 31.93C108.164 30.886 108.386 29.98 108.83 29.212C109.274 28.432 109.88 27.838 110.648 27.43C111.428 27.022 112.304 26.818 113.276 26.818ZM113.276 29.014C112.568 29.014 111.968 29.266 111.476 29.77C110.984 30.262 110.738 30.982 110.738 31.93C110.738 32.878 110.984 33.604 111.476 34.108C111.968 34.6 112.568 34.846 113.276 34.846C113.984 34.846 114.584 34.6 115.076 34.108C115.568 33.604 115.814 32.878 115.814 31.93C115.814 30.982 115.568 30.262 115.076 29.77C114.584 29.266 113.984 29.014 113.276 29.014Z" fill="black"/>
<path d="M126.122 26.8C127.274 26.8 128.192 27.178 128.876 27.934C129.56 28.69 129.902 29.752 129.902 31.12V36.916H127.382V31.408C127.382 30.616 127.178 30.004 126.77 29.572C126.362 29.128 125.804 28.906 125.096 28.906C124.376 28.906 123.8 29.14 123.368 29.608C122.936 30.076 122.72 30.748 122.72 31.624V36.916H120.182V26.944H122.72V28.942C122.984 28.27 123.416 27.748 124.016 27.376C124.628 26.992 125.33 26.8 126.122 26.8Z" fill="black"/>
<path d="M138.075 26.8C139.227 26.8 140.145 27.178 140.829 27.934C141.513 28.69 141.855 29.752 141.855 31.12V36.916H139.335V31.408C139.335 30.616 139.131 30.004 138.723 29.572C138.315 29.128 137.757 28.906 137.049 28.906C136.329 28.906 135.753 29.14 135.321 29.608C134.889 30.076 134.673 30.748 134.673 31.624V36.916H132.135V26.944H134.673V28.942C134.937 28.27 135.369 27.748 135.969 27.376C136.581 26.992 137.283 26.8 138.075 26.8Z" fill="black"/>
<path d="M153.466 31.552C153.466 31.804 153.436 32.092 153.376 32.416H146.068C146.104 33.304 146.344 33.958 146.788 34.378C147.232 34.798 147.784 35.008 148.444 35.008C149.032 35.008 149.518 34.864 149.902 34.576C150.298 34.288 150.55 33.898 150.658 33.406H153.34C153.208 34.102 152.926 34.726 152.494 35.278C152.062 35.83 151.504 36.262 150.82 36.574C150.148 36.886 149.398 37.042 148.57 37.042C147.598 37.042 146.734 36.838 145.978 36.43C145.222 36.01 144.634 35.416 144.214 34.648C143.794 33.88 143.584 32.974 143.584 31.93C143.584 30.886 143.794 29.98 144.214 29.212C144.634 28.432 145.222 27.838 145.978 27.43C146.734 27.022 147.598 26.818 148.57 26.818C149.554 26.818 150.412 27.022 151.144 27.43C151.888 27.838 152.458 28.402 152.854 29.122C153.262 29.83 153.466 30.64 153.466 31.552ZM150.91 31.3C150.946 30.484 150.73 29.866 150.262 29.446C149.806 29.026 149.242 28.816 148.57 28.816C147.886 28.816 147.31 29.026 146.842 29.446C146.374 29.866 146.116 30.484 146.068 31.3H150.91ZM151.252 24.244L147.112 26.188V24.46L151.252 22.3V24.244Z" fill="black"/>
<path d="M164.646 31.552C164.646 31.804 164.616 32.092 164.556 32.416H157.248C157.284 33.304 157.524 33.958 157.968 34.378C158.412 34.798 158.964 35.008 159.624 35.008C160.212 35.008 160.698 34.864 161.082 34.576C161.478 34.288 161.73 33.898 161.838 33.406H164.52C164.388 34.102 164.106 34.726 163.674 35.278C163.242 35.83 162.684 36.262 162 36.574C161.328 36.886 160.578 37.042 159.75 37.042C158.778 37.042 157.914 36.838 157.158 36.43C156.402 36.01 155.814 35.416 155.394 34.648C154.974 33.88 154.764 32.974 154.764 31.93C154.764 30.886 154.974 29.98 155.394 29.212C155.814 28.432 156.402 27.838 157.158 27.43C157.914 27.022 158.778 26.818 159.75 26.818C160.734 26.818 161.592 27.022 162.324 27.43C163.068 27.838 163.638 28.402 164.034 29.122C164.442 29.83 164.646 30.64 164.646 31.552ZM162.09 31.3C162.126 30.484 161.91 29.866 161.442 29.446C160.986 29.026 160.422 28.816 159.75 28.816C159.066 28.816 158.49 29.026 158.022 29.446C157.554 29.866 157.296 30.484 157.248 31.3H162.09Z" fill="black"/>
<path d="M169.885 26.818C171.097 26.818 172.069 27.124 172.801 27.736C173.533 28.348 173.989 29.164 174.169 30.184H171.793C171.697 29.704 171.481 29.32 171.145 29.032C170.809 28.744 170.371 28.6 169.831 28.6C169.399 28.6 169.063 28.702 168.823 28.906C168.583 29.11 168.463 29.386 168.463 29.734C168.463 30.01 168.559 30.232 168.751 30.4C168.943 30.568 169.183 30.7 169.471 30.796C169.759 30.892 170.173 31.006 170.713 31.138C171.469 31.306 172.081 31.486 172.549 31.678C173.029 31.858 173.437 32.152 173.773 32.56C174.121 32.956 174.295 33.496 174.295 34.18C174.295 35.032 173.959 35.722 173.287 36.25C172.627 36.778 171.733 37.042 170.605 37.042C169.309 37.042 168.271 36.754 167.491 36.178C166.711 35.59 166.237 34.756 166.069 33.676H168.499C168.559 34.168 168.775 34.558 169.147 34.846C169.519 35.122 170.005 35.26 170.605 35.26C171.037 35.26 171.367 35.158 171.595 34.954C171.823 34.738 171.937 34.462 171.937 34.126C171.937 33.838 171.835 33.604 171.631 33.424C171.439 33.244 171.193 33.106 170.893 33.01C170.605 32.914 170.191 32.8 169.651 32.668C168.907 32.5 168.301 32.332 167.833 32.164C167.377 31.984 166.981 31.702 166.645 31.318C166.321 30.934 166.159 30.406 166.159 29.734C166.159 28.87 166.489 28.168 167.149 27.628C167.809 27.088 168.721 26.818 169.885 26.818Z" fill="black"/>
</svg>
